<svg width="20" height="20" viewBox="0 0 20 20" fill="none" xmlns="http://www.w3.org/2000/svg">
<path d="M16.2743 4.60835L4.60768 16.275C4.59102 16.2917 4.58268 16.3 4.56602 16.3084C4.24935 16.0417 3.95768 15.75 3.69102 15.4334C2.42435 13.975 1.66602 12.075 1.66602 10C1.66602 5.40002 5.39935 1.66669 9.99935 1.66669C12.0743 1.66669 13.9743 2.42502 15.4327 3.69169C15.7493 3.95835 16.041 4.25002 16.3077 4.56669C16.2993 4.58335 16.291 4.59169 16.2743 4.60835Z" fill="#FE6D73"/>
<path d="M18.3327 10C18.3327 14.575 14.5744 18.3333 9.9994 18.3333C8.7494 18.3333 7.56606 18.0583 6.4994 17.5583C5.98273 17.3167 5.88273 16.625 6.28273 16.2167L16.2161 6.28334C16.6161 5.88334 17.3161 5.98334 17.5577 6.50001C18.0577 7.55834 18.3327 8.75001 18.3327 10Z" fill="#FE6D73"/>
<path d="M18.1408 1.85834C17.8908 1.60834 17.4824 1.60834 17.2324 1.85834L1.85742 17.2417C1.60742 17.4917 1.60742 17.9 1.85742 18.15C1.98242 18.2667 2.14076 18.3333 2.30742 18.3333C2.47409 18.3333 2.63242 18.2667 2.75742 18.1417L18.1408 2.75834C18.3991 2.50834 18.3991 2.10834 18.1408 1.85834Z" fill="#FE6D73"/>
</svg>
