<svg width="26" height="26" viewBox="0 0 26 26" fill="none" xmlns="http://www.w3.org/2000/svg">
<path d="M18.1467 3.8565V2.1665C18.1467 1.72234 17.7784 1.354 17.3342 1.354C16.8901 1.354 16.5217 1.72234 16.5217 2.1665V3.7915H9.48007V2.1665C9.48007 1.72234 9.11173 1.354 8.66757 1.354C8.2234 1.354 7.85507 1.72234 7.85507 2.1665V3.8565C4.93007 4.12734 3.5109 5.8715 3.29423 8.46067C3.27257 8.77484 3.53257 9.03484 3.8359 9.03484H22.1659C22.4801 9.03484 22.7401 8.764 22.7076 8.46067C22.4909 5.8715 21.0717 4.12734 18.1467 3.8565Z" fill="url(#paint0_linear_1_27249)"/>
<path d="M21.6667 10.6602H4.33333C3.7375 10.6602 3.25 11.1477 3.25 11.7435V18.4168C3.25 21.6668 4.875 23.8335 8.66667 23.8335H17.3333C21.125 23.8335 22.75 21.6668 22.75 18.4168V11.7435C22.75 11.1477 22.2625 10.6602 21.6667 10.6602ZM9.9775 19.7277C9.92333 19.771 9.86917 19.8252 9.815 19.8577C9.75 19.901 9.685 19.9335 9.62 19.9552C9.555 19.9877 9.49 20.0093 9.425 20.0202C9.34917 20.031 9.28417 20.0418 9.20833 20.0418C9.0675 20.0418 8.92667 20.0093 8.79667 19.9552C8.65583 19.901 8.5475 19.8252 8.43917 19.7277C8.24417 19.5218 8.125 19.2402 8.125 18.9585C8.125 18.6768 8.24417 18.3952 8.43917 18.1893C8.5475 18.0918 8.65583 18.016 8.79667 17.9618C8.99167 17.8752 9.20833 17.8535 9.425 17.8968C9.49 17.9077 9.555 17.9293 9.62 17.9618C9.685 17.9835 9.75 18.016 9.815 18.0593C9.86917 18.1027 9.92333 18.146 9.9775 18.1893C10.1725 18.3952 10.2917 18.6768 10.2917 18.9585C10.2917 19.2402 10.1725 19.5218 9.9775 19.7277ZM9.9775 15.936C9.77167 16.131 9.49 16.2502 9.20833 16.2502C8.92667 16.2502 8.645 16.131 8.43917 15.936C8.24417 15.7302 8.125 15.4485 8.125 15.1668C8.125 14.8852 8.24417 14.6035 8.43917 14.3977C8.7425 14.0943 9.21917 13.9968 9.62 14.1702C9.76083 14.2243 9.88 14.3002 9.9775 14.3977C10.1725 14.6035 10.2917 14.8852 10.2917 15.1668C10.2917 15.4485 10.1725 15.7302 9.9775 15.936ZM13.7692 19.7277C13.5633 19.9227 13.2817 20.0418 13 20.0418C12.7183 20.0418 12.4367 19.9227 12.2308 19.7277C12.0358 19.5218 11.9167 19.2402 11.9167 18.9585C11.9167 18.6768 12.0358 18.3952 12.2308 18.1893C12.6317 17.7885 13.3683 17.7885 13.7692 18.1893C13.9642 18.3952 14.0833 18.6768 14.0833 18.9585C14.0833 19.2402 13.9642 19.5218 13.7692 19.7277ZM13.7692 15.936C13.715 15.9793 13.6608 16.0227 13.6067 16.066C13.5417 16.1093 13.4767 16.1418 13.4117 16.1635C13.3467 16.196 13.2817 16.2177 13.2167 16.2285C13.1408 16.2393 13.0758 16.2502 13 16.2502C12.7183 16.2502 12.4367 16.131 12.2308 15.936C12.0358 15.7302 11.9167 15.4485 11.9167 15.1668C11.9167 14.8852 12.0358 14.6035 12.2308 14.3977C12.3283 14.3002 12.4475 14.2243 12.5883 14.1702C12.9892 13.9968 13.4658 14.0943 13.7692 14.3977C13.9642 14.6035 14.0833 14.8852 14.0833 15.1668C14.0833 15.4485 13.9642 15.7302 13.7692 15.936ZM17.5608 19.7277C17.355 19.9227 17.0733 20.0418 16.7917 20.0418C16.51 20.0418 16.2283 19.9227 16.0225 19.7277C15.8275 19.5218 15.7083 19.2402 15.7083 18.9585C15.7083 18.6768 15.8275 18.3952 16.0225 18.1893C16.4233 17.7885 17.16 17.7885 17.5608 18.1893C17.7558 18.3952 17.875 18.6768 17.875 18.9585C17.875 19.2402 17.7558 19.5218 17.5608 19.7277ZM17.5608 15.936C17.5067 15.9793 17.4525 16.0227 17.3983 16.066C17.3333 16.1093 17.2683 16.1418 17.2033 16.1635C17.1383 16.196 17.0733 16.2177 17.0083 16.2285C16.9325 16.2393 16.8567 16.2502 16.7917 16.2502C16.51 16.2502 16.2283 16.131 16.0225 15.936C15.8275 15.7302 15.7083 15.4485 15.7083 15.1668C15.7083 14.8852 15.8275 14.6035 16.0225 14.3977C16.1308 14.3002 16.2392 14.2243 16.38 14.1702C16.575 14.0835 16.7917 14.0618 17.0083 14.1052C17.0733 14.116 17.1383 14.1377 17.2033 14.1702C17.2683 14.1918 17.3333 14.2243 17.3983 14.2677C17.4525 14.311 17.5067 14.3543 17.5608 14.3977C17.7558 14.6035 17.875 14.8852 17.875 15.1668C17.875 15.4485 17.7558 15.7302 17.5608 15.936Z" fill="url(#paint1_linear_1_27249)"/>
<defs>
<linearGradient id="paint0_linear_1_27249" x1="13.0016" y1="1.354" x2="12.9256" y2="10.6685" gradientUnits="userSpaceOnUse">
<stop stop-color="#BEBEBE"/>
<stop offset="1" stop-color="white"/>
</linearGradient>
<linearGradient id="paint1_linear_1_27249" x1="13" y1="10.6602" x2="12.7774" y2="26.6334" gradientUnits="userSpaceOnUse">
<stop stop-color="#BEBEBE"/>
<stop offset="1" stop-color="white"/>
</linearGradient>
</defs>
</svg>
