<svg width="14" height="15" viewBox="0 0 14 15" fill="none" xmlns="http://www.w3.org/2000/svg">
<path d="M12.25 12.8333H1.75C1.51083 12.8333 1.3125 12.635 1.3125 12.3958C1.3125 12.1567 1.51083 11.9583 1.75 11.9583H12.25C12.4892 11.9583 12.6875 12.1567 12.6875 12.3958C12.6875 12.635 12.4892 12.8333 12.25 12.8333Z" fill="url(#paint0_linear_1293_2746)"/>
<path d="M11.0958 2.03C9.96415 0.898336 8.85582 0.869169 7.69498 2.03L6.98915 2.73584C6.93082 2.79417 6.90748 2.8875 6.93082 2.96917C7.37415 4.515 8.61082 5.75167 10.1566 6.195C10.18 6.20084 10.2033 6.20667 10.2267 6.20667C10.2908 6.20667 10.3491 6.18334 10.3958 6.13667L11.0958 5.43084C11.6733 4.85917 11.9533 4.305 11.9533 3.745C11.9591 3.1675 11.6792 2.6075 11.0958 2.03Z" fill="url(#paint1_linear_1293_2746)"/>
<path d="M9.10488 6.72583C8.93571 6.64417 8.77238 6.5625 8.61488 6.46917C8.48655 6.39333 8.36405 6.31167 8.24155 6.22417C8.14238 6.16 8.02571 6.06667 7.91488 5.97333C7.90321 5.9675 7.86238 5.9325 7.81571 5.88583C7.62321 5.7225 7.40738 5.5125 7.21488 5.27917C7.19738 5.2675 7.16821 5.22667 7.12738 5.17417C7.06905 5.10417 6.96988 4.9875 6.88238 4.85333C6.81238 4.76583 6.73071 4.6375 6.65488 4.50917C6.56155 4.35167 6.47988 4.19417 6.39821 4.03083C6.29114 3.80139 5.98999 3.73322 5.81095 3.91227L2.53071 7.1925C2.45488 7.26833 2.38488 7.41417 2.36738 7.51333L2.05238 9.7475C1.99405 10.1442 2.10488 10.5175 2.34988 10.7683C2.55988 10.9725 2.85155 11.0833 3.16655 11.0833C3.23655 11.0833 3.30655 11.0775 3.37655 11.0658L5.61655 10.7508C5.72155 10.7333 5.86738 10.6633 5.93738 10.5875L9.22303 7.30185C9.39849 7.12639 9.33256 6.8245 9.10488 6.72583Z" fill="url(#paint2_linear_1293_2746)"/>
<defs>
<linearGradient id="paint0_linear_1293_2746" x1="7" y1="11.9583" x2="6.99832" y2="13.0195" gradientUnits="userSpaceOnUse">
<stop stop-color="#BEBEBE"/>
<stop offset="1" stop-color="white"/>
</linearGradient>
<linearGradient id="paint1_linear_1293_2746" x1="9.43764" y1="1.17028" x2="9.31158" y2="7.2757" gradientUnits="userSpaceOnUse">
<stop stop-color="#BEBEBE"/>
<stop offset="1" stop-color="white"/>
</linearGradient>
<linearGradient id="paint2_linear_1293_2746" x1="5.81891" y1="3.52917" x2="5.63024" y2="12.6868" gradientUnits="userSpaceOnUse">
<stop stop-color="#BEBEBE"/>
<stop offset="1" stop-color="white"/>
</linearGradient>
</defs>
</svg>
