<svg width="26" height="26" viewBox="0 0 26 26" fill="none" xmlns="http://www.w3.org/2000/svg">
<path d="M22.5656 8.67736L15.4698 3.00069C14.0831 1.89569 11.9165 1.88486 10.5406 2.98986L3.4448 8.67736C2.42646 9.48986 1.80896 11.1149 2.02563 12.3932L3.39063 20.5615C3.7048 22.3924 5.40563 23.8332 7.25813 23.8332H18.7415C20.5723 23.8332 22.3056 22.3599 22.6198 20.5507L23.9848 12.3824C24.1798 11.1149 23.5623 9.48986 22.5656 8.67736ZM13.8123 19.4999C13.8123 19.944 13.444 20.3124 12.9998 20.3124C12.5556 20.3124 12.1873 19.944 12.1873 19.4999V16.2499C12.1873 15.8057 12.5556 15.4374 12.9998 15.4374C13.444 15.4374 13.8123 15.8057 13.8123 16.2499V19.4999Z" fill="url(#paint0_linear_1_1507)"/>
<defs>
<linearGradient id="paint0_linear_1_1507" x1="13.0016" y1="2.1665" x2="12.4689" y2="28.4326" gradientUnits="userSpaceOnUse">
<stop stop-color="#BEBEBE"/>
<stop offset="1" stop-color="white"/>
</linearGradient>
</defs>
</svg>
