<svg width="50" height="50" viewBox="0 0 50 50" fill="none" xmlns="http://www.w3.org/2000/svg">
<circle cx="25" cy="25" r="11" fill="white"/>
<path d="M42.083 19.0835L44.9163 22.3752C46.1455 23.8127 46.1455 26.1877 44.9372 27.6252L42.1038 30.9168C41.5622 31.5418 41.1247 32.7293 41.1247 33.5418V37.0835C41.1247 39.2918 39.3122 41.1043 37.1038 41.1043H33.5622C32.7288 41.1043 31.5622 41.5418 30.9372 42.0835L27.6455 44.9168C26.1872 46.146 23.833 46.146 22.3955 44.9168L19.1038 42.0835C18.4788 41.5418 17.2913 41.1043 16.4788 41.1043H12.8747C10.6663 41.1043 8.85384 39.2918 8.85384 37.0835V33.521C8.85384 32.7085 8.41634 31.5418 7.89551 30.9168L5.08301 27.6043C3.87467 26.1668 3.87467 23.8335 5.08301 22.396L7.89551 19.0835C8.41634 18.4585 8.85384 17.2918 8.85384 16.4793V12.9168C8.85384 10.7085 10.6663 8.896 12.8747 8.896H16.4788C17.2913 8.896 18.4788 8.4585 19.1038 7.93766L22.3747 5.0835C23.833 3.85433 26.1872 3.85433 27.6247 5.0835L30.9163 7.91683C31.5413 8.4585 32.7288 8.896 33.5413 8.896H37.083C39.2913 8.896 41.1038 10.7085 41.1038 12.9168V16.4585C41.1038 17.2918 41.5413 18.4585 42.083 19.0835Z" fill="#F20E8E"/>
<path d="M32.4462 31.5314L26.4187 25.5045L32.4462 19.4776C32.5789 19.3326 32.6505 19.1421 32.6462 18.9457C32.6418 18.7492 32.5618 18.562 32.4229 18.4231C32.2839 18.2842 32.0967 18.2042 31.9002 18.1998C31.7038 18.1955 31.5132 18.2671 31.3683 18.3997L25.3407 24.4236L19.3147 18.3982C19.2446 18.3246 19.1604 18.2658 19.0672 18.2251C18.9739 18.1845 18.8735 18.1629 18.7718 18.1617C18.6701 18.1604 18.5692 18.1795 18.475 18.2178C18.3808 18.2561 18.2952 18.3128 18.2232 18.3847C18.1513 18.4565 18.0944 18.5421 18.056 18.6362C18.0175 18.7303 17.9983 18.8312 17.9994 18.9329C18.0005 19.0346 18.022 19.135 18.0625 19.2283C18.103 19.3216 18.1617 19.4058 18.2352 19.4761L24.2612 25.5045L18.2337 31.5314C18.101 31.6763 18.0294 31.8669 18.0338 32.0633C18.0381 32.2598 18.1181 32.4469 18.257 32.5859C18.396 32.7248 18.5832 32.8048 18.7797 32.8091C18.9761 32.8135 19.1667 32.7419 19.3117 32.6092L25.3392 26.5824L31.3683 32.6092C31.4384 32.6829 31.5226 32.7417 31.6158 32.7823C31.709 32.8229 31.8095 32.8445 31.9111 32.8458C32.0128 32.847 32.1138 32.828 32.208 32.7897C32.3022 32.7514 32.3878 32.6946 32.4597 32.6228C32.5317 32.5509 32.5886 32.4654 32.627 32.3713C32.6654 32.2771 32.6847 32.1762 32.6835 32.0745C32.6824 31.9729 32.661 31.8724 32.6205 31.7792C32.58 31.6859 32.5213 31.6016 32.4478 31.5314L32.4462 31.5314Z" fill="white"/>
</svg>
