<svg width="50" height="50" viewBox="0 0 50 50" fill="none" xmlns="http://www.w3.org/2000/svg">
<circle cx="25" cy="25" r="11" fill="white"/>
<path d="M44.9173 22.3752L42.084 19.0835C41.5423 18.4585 41.1048 17.2918 41.1048 16.4585V12.9168C41.1048 10.7085 39.2923 8.896 37.084 8.896H33.5423C32.7298 8.896 31.5423 8.4585 30.9173 7.91683L27.6257 5.0835C26.1882 3.85433 23.834 3.85433 22.3757 5.0835L19.1048 7.93766C18.4798 8.4585 17.2923 8.896 16.4798 8.896H12.8757C10.6673 8.896 8.85482 10.7085 8.85482 12.9168V16.4793C8.85482 17.2918 8.41732 18.4585 7.89648 19.0835L5.08398 22.396C3.87565 23.8335 3.87565 26.1668 5.08398 27.6043L7.89648 30.9168C8.41732 31.5418 8.85482 32.7085 8.85482 33.521V37.0835C8.85482 39.2918 10.6673 41.1043 12.8757 41.1043H16.4798C17.2923 41.1043 18.4798 41.5418 19.1048 42.0835L22.3965 44.9168C23.834 46.146 26.1882 46.146 27.6465 44.9168L30.9382 42.0835C31.5632 41.5418 32.7298 41.1043 33.5632 41.1043H37.1048C39.3132 41.1043 41.1257 39.2918 41.1257 37.0835V33.5418C41.1257 32.7293 41.5632 31.5418 42.1048 30.9168L44.9382 27.6252C46.1465 26.1877 46.1465 23.8127 44.9173 22.3752ZM33.6673 21.0627L23.6048 31.1252C23.3132 31.4168 22.9173 31.5835 22.5007 31.5835C22.084 31.5835 21.6882 31.4168 21.3965 31.1252L16.3548 26.0835C15.7507 25.4793 15.7507 24.4793 16.3548 23.8752C16.959 23.271 17.959 23.271 18.5632 23.8752L22.5007 27.8127L31.459 18.8543C32.0632 18.2502 33.0632 18.2502 33.6673 18.8543C34.2715 19.4585 34.2715 20.4585 33.6673 21.0627Z" fill="#68AEFF"/>
</svg>
