<svg width="50" height="50" viewBox="0 0 50 50" fill="none" xmlns="http://www.w3.org/2000/svg">
<circle cx="25" cy="25" r="11" fill="white"/>
<path d="M42.0833 19.0833L44.9166 22.375C46.1458 23.8125 46.1458 26.1875 44.9374 27.625L42.1041 30.9166C41.5624 31.5416 41.1249 32.7291 41.1249 33.5416V37.0833C41.1249 39.2916 39.3124 41.1041 37.1041 41.1041H33.5624C32.7291 41.1041 31.5624 41.5416 30.9374 42.0833L27.6458 44.9166C26.1874 46.1458 23.8333 46.1458 22.3958 44.9166L19.1041 42.0833C18.4791 41.5416 17.2916 41.1041 16.4791 41.1041H12.8749C10.6666 41.1041 8.85409 39.2916 8.85409 37.0833V33.5208C8.85409 32.7083 8.41659 31.5416 7.89575 30.9166L5.08325 27.6041C3.87492 26.1666 3.87492 23.8333 5.08325 22.3958L7.89575 19.0833C8.41659 18.4583 8.85409 17.2916 8.85409 16.4791V12.9166C8.85409 10.7083 10.6666 8.89581 12.8749 8.89581H16.4791C17.2916 8.89581 18.4791 8.45831 19.1041 7.93748L22.3749 5.08331C23.8333 3.85415 26.1874 3.85415 27.6249 5.08331L30.9166 7.91665C31.5416 8.45831 32.7291 8.89581 33.5416 8.89581H37.0833C39.2916 8.89581 41.1041 10.7083 41.1041 12.9166V16.4583C41.1041 17.2916 41.5416 18.4583 42.0833 19.0833Z" fill="#F20E8E"/>
<path d="M32.447 31.5312L26.4194 25.5043L32.447 19.4774C32.5796 19.3325 32.6512 19.1419 32.6469 18.9455C32.6425 18.749 32.5626 18.5619 32.4236 18.4229C32.2846 18.284 32.0974 18.204 31.901 18.1997C31.7045 18.1953 31.514 18.2669 31.369 18.3996L25.3415 24.4234L19.3155 18.398C19.2453 18.3244 19.1611 18.2656 19.0679 18.2249C18.9747 18.1843 18.8743 18.1628 18.7726 18.1615C18.6709 18.1602 18.57 18.1793 18.4757 18.2176C18.3815 18.2559 18.2959 18.3127 18.224 18.3845C18.152 18.4564 18.0951 18.5419 18.0567 18.636C18.0183 18.7302 17.999 18.831 18.0002 18.9327C18.0013 19.0344 18.0227 19.1348 18.0632 19.2281C18.1037 19.3214 18.1624 19.4056 18.2359 19.4759L24.2619 25.5043L18.2344 31.5312C18.1018 31.6761 18.0301 31.8667 18.0345 32.0631C18.0388 32.2596 18.1188 32.4468 18.2578 32.5857C18.3967 32.7246 18.5839 32.8046 18.7804 32.809C18.9769 32.8133 19.1674 32.7417 19.3124 32.6091L25.3399 26.5822L31.369 32.6091C31.4391 32.6827 31.5233 32.7415 31.6165 32.7821C31.7098 32.8228 31.8102 32.8443 31.9119 32.8456C32.0136 32.8468 32.1145 32.8278 32.2087 32.7895C32.3029 32.7512 32.3885 32.6944 32.4605 32.6226C32.5324 32.5507 32.5893 32.4652 32.6277 32.3711C32.6662 32.2769 32.6854 32.176 32.6843 32.0744C32.6832 31.9727 32.6617 31.8723 32.6212 31.779C32.5807 31.6857 32.522 31.6015 32.4485 31.5312L32.447 31.5312Z" fill="white"/>
</svg>
