<svg width="14" height="14" viewBox="0 0 14 14" fill="none" xmlns="http://www.w3.org/2000/svg">
<path d="M12.5766 6.26501L11.7891 5.34334C11.6433 5.16834 11.5208 4.84167 11.5208 4.60834V3.61667C11.5208 2.99834 11.0133 2.49084 10.395 2.49084H9.40331C9.16997 2.49084 8.83747 2.36834 8.66247 2.2225L7.74081 1.435C7.33831 1.09084 6.67914 1.09084 6.27664 1.435L5.34331 2.2225C5.16831 2.36834 4.84164 2.49084 4.60831 2.49084H3.59914C2.98081 2.49084 2.47331 2.99834 2.47331 3.61667V4.60834C2.47331 4.83584 2.35664 5.1625 2.21081 5.3375L1.42331 6.26501C1.08497 6.67334 1.08497 7.32667 1.42331 7.72334L2.21081 8.65084C2.35664 8.82001 2.47331 9.15251 2.47331 9.38001V10.3775C2.47331 10.9958 2.98081 11.5033 3.59914 11.5033H4.61414C4.84164 11.5033 5.17414 11.6258 5.34914 11.7717L6.27081 12.5592C6.67331 12.9033 7.33247 12.9033 7.73497 12.5592L8.65664 11.7717C8.83164 11.6258 9.15831 11.5033 9.39164 11.5033H10.3833C11.0016 11.5033 11.5091 10.9958 11.5091 10.3775V9.38584C11.5091 9.15251 11.6316 8.82584 11.7775 8.65084L12.565 7.72917C12.9208 7.33251 12.9208 6.67334 12.5766 6.26501ZM8.63914 9.47334L8.06747 8.19001C8.04997 8.19001 8.03247 8.20167 8.01497 8.20167H5.97331C5.95581 8.20167 5.93831 8.19584 5.9208 8.19001L5.34914 9.47334L4.54997 9.11751L6.59164 4.52084H7.39081L9.43247 9.11751L8.63914 9.47334Z" fill="url(#paint0_linear_1142_1520)"/>
<path d="M6.31165 7.32666H7.68831L6.99998 5.78082L6.31165 7.32666Z" fill="url(#paint1_linear_1142_1520)"/>
<defs>
<linearGradient id="paint0_linear_1142_1520" x1="7.00144" y1="1.17688" x2="6.71094" y2="15.2881" gradientUnits="userSpaceOnUse">
<stop stop-color="#BEBEBE"/>
<stop offset="1" stop-color="white"/>
</linearGradient>
<linearGradient id="paint1_linear_1142_1520" x1="6.99998" y1="5.78082" x2="6.95658" y2="7.65457" gradientUnits="userSpaceOnUse">
<stop stop-color="#BEBEBE"/>
<stop offset="1" stop-color="white"/>
</linearGradient>
</defs>
</svg>
