<svg width="44" height="44" viewBox="0 0 44 44" fill="none" xmlns="http://www.w3.org/2000/svg">
<rect width="44" height="44" rx="16" fill="url(#paint0_linear_1_19476)" fill-opacity="0.2"/>
<rect x="0.5" y="0.5" width="43" height="43" rx="15.5" stroke="url(#paint1_linear_1_19476)" stroke-opacity="0.2"/>
<path d="M30.1249 17.1248L28.5107 18.739L25.2607 15.489L26.8749 13.8748C27.3299 13.4198 27.9149 13.2031 28.4999 13.2031C29.0849 13.2031 29.6699 13.4198 30.1249 13.8748C31.0241 14.774 31.0241 16.2256 30.1249 17.1248Z" fill="url(#paint2_linear_1_19476)"/>
<path d="M27.7524 19.5083L16.0416 31.2083C15.1424 32.1075 13.6907 32.1075 12.7916 31.2083C11.8924 30.3091 11.8924 28.8575 12.7916 27.9583L24.5024 16.2583L27.7524 19.5083Z" fill="url(#paint3_linear_1_19476)"/>
<path d="M19.7794 12.7916L20.2236 11.2857C20.2669 11.1449 20.2236 10.9932 20.1261 10.8849C20.0286 10.7766 19.8552 10.7332 19.7144 10.7766L18.2086 11.2207L16.7027 10.7766C16.5619 10.7332 16.4102 10.7766 16.3019 10.8741C16.1936 10.9824 16.1611 11.1341 16.2044 11.2749L16.6377 12.7916L16.1936 14.2974C16.1502 14.4382 16.1936 14.5899 16.2911 14.6982C16.3994 14.8066 16.5511 14.8391 16.6919 14.7957L18.2086 14.3624L19.7144 14.8066C19.7577 14.8174 19.7902 14.8282 19.8336 14.8282C19.9419 14.8282 20.0394 14.7849 20.1261 14.7091C20.2344 14.6007 20.2669 14.4491 20.2236 14.3082L19.7794 12.7916Z" fill="url(#paint4_linear_1_19476)"/>
<path d="M15.4454 19.2916L15.8896 17.7857C15.9329 17.6449 15.8896 17.4932 15.7921 17.3849C15.6837 17.2766 15.5321 17.2441 15.3912 17.2874L13.8746 17.7207L12.3687 17.2766C12.2279 17.2332 12.0762 17.2766 11.9679 17.3741C11.8596 17.4824 11.8271 17.6341 11.8704 17.7749L12.3037 19.2916L11.8596 20.7974C11.8162 20.9382 11.8596 21.0899 11.9571 21.1982C12.0654 21.3066 12.2171 21.3391 12.3579 21.2957L13.8637 20.8516L15.3696 21.2957C15.4021 21.3066 15.4454 21.3066 15.4887 21.3066C15.5971 21.3066 15.6946 21.2632 15.7812 21.1874C15.8896 21.0791 15.9221 20.9274 15.8787 20.7866L15.4454 19.2916Z" fill="url(#paint5_linear_1_19476)"/>
<path d="M31.696 24.7083L32.1402 23.2025C32.1835 23.0616 32.1402 22.91 32.0427 22.8016C31.9344 22.6933 31.7827 22.6608 31.6419 22.7041L30.136 23.1483L28.6302 22.7041C28.4894 22.6608 28.3377 22.7041 28.2294 22.8016C28.121 22.91 28.0885 23.0616 28.1319 23.2025L28.576 24.7083L28.1319 26.2141C28.0885 26.355 28.1319 26.5066 28.2294 26.615C28.3377 26.7233 28.4894 26.7558 28.6302 26.7125L30.136 26.2683L31.6419 26.7125C31.6744 26.7233 31.7177 26.7233 31.761 26.7233C31.8694 26.7233 31.9669 26.68 32.0535 26.6041C32.1619 26.4958 32.1944 26.3441 32.151 26.2033L31.696 24.7083Z" fill="url(#paint6_linear_1_19476)"/>
<defs>
<linearGradient id="paint0_linear_1_19476" x1="22" y1="-21.6716" x2="22" y2="54.5075" gradientUnits="userSpaceOnUse">
<stop stop-color="#D6D6D6"/>
<stop offset="1" stop-color="#707070"/>
</linearGradient>
<linearGradient id="paint1_linear_1_19476" x1="22" y1="0" x2="22" y2="44" gradientUnits="userSpaceOnUse">
<stop stop-color="#F2F2F2"/>
<stop offset="0.414226" stop-color="#818181"/>
<stop offset="1" stop-color="white"/>
</linearGradient>
<linearGradient id="paint2_linear_1_19476" x1="28.03" y1="13.2031" x2="27.8916" y2="19.914" gradientUnits="userSpaceOnUse">
<stop stop-color="#BEBEBE"/>
<stop offset="1" stop-color="white"/>
</linearGradient>
<linearGradient id="paint3_linear_1_19476" x1="19.9348" y1="16.2583" x2="19.5444" y2="35.1992" gradientUnits="userSpaceOnUse">
<stop stop-color="#BEBEBE"/>
<stop offset="1" stop-color="white"/>
</linearGradient>
<linearGradient id="paint4_linear_1_19476" x1="18.2094" y1="10.7598" x2="18.1076" y2="15.6918" gradientUnits="userSpaceOnUse">
<stop stop-color="#BEBEBE"/>
<stop offset="1" stop-color="white"/>
</linearGradient>
<linearGradient id="paint5_linear_1_19476" x1="13.8746" y1="17.2598" x2="13.7734" y2="22.1749" gradientUnits="userSpaceOnUse">
<stop stop-color="#BEBEBE"/>
<stop offset="1" stop-color="white"/>
</linearGradient>
<linearGradient id="paint6_linear_1_19476" x1="30.1414" y1="22.6855" x2="30.0405" y2="27.5897" gradientUnits="userSpaceOnUse">
<stop stop-color="#BEBEBE"/>
<stop offset="1" stop-color="white"/>
</linearGradient>
</defs>
</svg>
