<svg width="20" height="20" viewBox="0 0 20 20" fill="none" xmlns="http://www.w3.org/2000/svg">
<path d="M18.0749 2.25833C18.0082 2.10833 17.8915 1.98333 17.7332 1.91667C17.6582 1.89167 17.5832 1.875 17.4999 1.875H14.1665C13.8249 1.875 13.5415 2.15833 13.5415 2.5C13.5415 2.84167 13.8249 3.125 14.1665 3.125H15.9915L12.0582 7.05833C11.8165 7.3 11.8165 7.7 12.0582 7.94167C12.1832 8.06667 12.3415 8.125 12.4999 8.125C12.6582 8.125 12.8165 8.06667 12.9415 7.94167L16.8749 4.00833V5.83333C16.8749 6.175 17.1582 6.45833 17.4999 6.45833C17.8415 6.45833 18.1249 6.175 18.1249 5.83333V2.5C18.1249 2.41667 18.1082 2.34167 18.0749 2.25833Z" fill="#2189FF"/>
<path d="M7.05833 12.0582L3.125 15.9915V14.1665C3.125 13.8249 2.84167 13.5415 2.5 13.5415C2.15833 13.5415 1.875 13.8249 1.875 14.1665V17.4999C1.875 17.5832 1.89167 17.6582 1.925 17.7415C1.99167 17.8915 2.10833 18.0165 2.26667 18.0832C2.33333 18.1082 2.41667 18.1249 2.5 18.1249H5.83333C6.175 18.1249 6.45833 17.8415 6.45833 17.4999C6.45833 17.1582 6.175 16.8749 5.83333 16.8749H4.00833L7.94167 12.9415C8.18333 12.6999 8.18333 12.2999 7.94167 12.0582C7.7 11.8165 7.3 11.8165 7.05833 12.0582Z" fill="#2189FF"/>
<path d="M1.83317 12.2915C1.5415 12.2915 1.28317 12.0832 1.22484 11.7915C1.10817 11.2082 1.0415 10.5998 1.0415 9.99984C1.0415 5.05817 5.05817 1.0415 9.99984 1.0415C10.6082 1.0415 11.2165 1.09984 11.8082 1.22484C12.1498 1.2915 12.3665 1.62484 12.2998 1.95817C12.2332 2.29984 11.8915 2.50817 11.5665 2.44984C11.0415 2.3415 10.5248 2.2915 9.99984 2.2915C5.74984 2.2915 2.2915 5.74984 2.2915 9.99984C2.2915 10.5165 2.3415 11.0415 2.44984 11.5415C2.5165 11.8832 2.29984 12.2082 1.95817 12.2748C1.9165 12.2915 1.87484 12.2915 1.83317 12.2915Z" fill="#2189FF"/>
<path d="M10 18.9583C9.39169 18.9583 8.78336 18.8999 8.19169 18.7749C7.85002 18.7083 7.63336 18.3749 7.70002 18.0416C7.76669 17.6999 8.10836 17.4916 8.43336 17.5499C8.94169 17.6499 9.46669 17.7083 9.99169 17.7083C14.2417 17.7083 17.7 14.2499 17.7 9.99993C17.7 9.48326 17.65 8.96659 17.55 8.45826C17.4834 8.11659 17.7 7.79159 18.0417 7.72493C18.3834 7.65826 18.7084 7.87493 18.775 8.21659C18.8917 8.79993 18.95 9.39993 18.95 9.99993C18.9584 14.9416 14.9417 18.9583 10 18.9583Z" fill="#2189FF"/>
</svg>
