<svg width="14" height="14" viewBox="0 0 14 14" fill="none" xmlns="http://www.w3.org/2000/svg">
<path d="M2.38373 12.1306C2.93761 12.4573 3.56893 12.6696 4.25677 12.8054C3.65245 13.7786 2.09789 14.1761 1.97455 13.9274C1.84029 13.6563 2.51244 13.611 2.51263 12.7975C2.51263 12.4951 2.45307 12.2751 2.38373 12.1306Z" fill="url(#paint0_linear_1094_1405)"/>
<path d="M7 0C9.15124 0 11.0763 0.244433 12.3604 1.44727C13.3836 2.4058 14 3.97366 14 6.51172C14 9.04992 13.383 10.6174 12.3594 11.5762C11.0756 12.7787 9.15119 13.0234 7 13.0234C4.84876 13.0234 2.92373 12.7787 1.63965 11.5762C0.61643 10.6174 1.03033e-05 9.04968 0 6.51172C0 3.97366 0.616382 2.4058 1.63965 1.44727C2.92345 0.244433 4.84848 2.10574e-09 7 0ZM3.41016 5.42676C2.81543 5.42681 2.33301 5.91237 2.33301 6.51172C2.33304 7.11104 2.81546 7.59662 3.41016 7.59668C4.0049 7.59668 4.48727 7.11107 4.4873 6.51172C4.4873 5.91234 4.00492 5.42676 3.41016 5.42676ZM7 5.42676C6.40523 5.42676 5.92285 5.91234 5.92285 6.51172C5.92289 7.11107 6.40525 7.59668 7 7.59668C7.59475 7.59668 8.07711 7.11107 8.07715 6.51172C8.07715 5.91234 7.59477 5.42676 7 5.42676ZM10.5898 5.42676C9.99508 5.42676 9.5127 5.91234 9.5127 6.51172C9.51273 7.11107 9.9951 7.59668 10.5898 7.59668C11.1845 7.59663 11.667 7.11104 11.667 6.51172C11.667 5.91237 11.1846 5.42681 10.5898 5.42676Z" fill="url(#paint1_linear_1094_1405)"/>
<defs>
<linearGradient id="paint0_linear_1094_1405" x1="3.10697" y1="12.1306" x2="3.06898" y2="14.3968" gradientUnits="userSpaceOnUse">
<stop stop-color="#BEBEBE"/>
<stop offset="1" stop-color="white"/>
</linearGradient>
<linearGradient id="paint1_linear_1094_1405" x1="7" y1="9.70578e-09" x2="6.69704" y2="15.7886" gradientUnits="userSpaceOnUse">
<stop stop-color="#BEBEBE"/>
<stop offset="1" stop-color="white"/>
</linearGradient>
</defs>
</svg>
