<svg width="12" height="12" viewBox="0 0 12 12" fill="none" xmlns="http://www.w3.org/2000/svg">
<rect width="12" height="12" rx="6" fill="url(#paint0_linear_1175_2868)"/>
<g clip-path="url(#clip0_1175_2868)">
<path d="M6.00008 5.55553C7.84103 5.55553 9.33341 5.05807 9.33341 4.44442C9.33341 3.83077 7.84103 3.33331 6.00008 3.33331C4.15913 3.33331 2.66675 3.83077 2.66675 4.44442C2.66675 5.05807 4.15913 5.55553 6.00008 5.55553Z" fill="white"/>
<path d="M6.00008 5.55553C7.84103 5.55553 9.33341 5.05807 9.33341 4.44442C9.33341 3.83077 7.84103 3.33331 6.00008 3.33331C4.15913 3.33331 2.66675 3.83077 2.66675 4.44442C2.66675 5.05807 4.15913 5.55553 6.00008 5.55553Z" fill="white"/>
<path d="M8.56792 5.86253C7.87214 6.09444 6.96021 6.22217 6.00008 6.22217C5.03995 6.22217 4.12801 6.09444 3.43224 5.86253C3.11383 5.75639 2.86319 5.63577 2.66675 5.50781V5.97772C2.66675 6.27451 3.01345 6.55354 3.64306 6.76339C4.27263 6.97326 5.1097 7.08884 6.00008 7.08884C6.89046 7.08884 7.72753 6.97327 8.3571 6.7634C8.98668 6.55354 9.33341 6.27451 9.33341 5.97772V5.50781C9.13697 5.63577 8.88633 5.75637 8.56792 5.86253Z" fill="white"/>
<path d="M8.56792 7.3959C7.87216 7.62781 6.96021 7.75555 6.00008 7.75555C5.03995 7.75555 4.128 7.62781 3.43224 7.39589C3.11382 7.28975 2.86318 7.16915 2.66675 7.0412V7.55556C2.66675 8.16919 4.15913 8.66665 6.00008 8.66665C7.84103 8.66665 9.33341 8.16919 9.33341 7.55555V7.04121C9.137 7.16914 8.88634 7.28977 8.56792 7.3959Z" fill="white"/>
</g>
<defs>
<linearGradient id="paint0_linear_1175_2868" x1="6" y1="2.98023e-09" x2="6.1" y2="12.1" gradientUnits="userSpaceOnUse">
<stop stop-color="#20AEFE"/>
<stop offset="1" stop-color="#135FFF"/>
</linearGradient>
<clipPath id="clip0_1175_2868">
<rect width="6.66667" height="6.66667" fill="white" transform="translate(2.66675 2.66669)"/>
</clipPath>
</defs>
</svg>
