<svg width="14" height="14" viewBox="0 0 14 14" fill="none" xmlns="http://www.w3.org/2000/svg">
<path d="M9.33268 1.16669H4.66602C2.33268 1.16669 1.16602 2.33335 1.16602 4.66669V12.25C1.16602 12.5709 1.42852 12.8334 1.74935 12.8334H9.33268C11.666 12.8334 12.8327 11.6667 12.8327 9.33335V4.66669C12.8327 2.33335 11.666 1.16669 9.33268 1.16669ZM8.16602 8.89585H4.08268C3.84352 8.89585 3.64518 8.69752 3.64518 8.45835C3.64518 8.21919 3.84352 8.02085 4.08268 8.02085H8.16602C8.40518 8.02085 8.60352 8.21919 8.60352 8.45835C8.60352 8.69752 8.40518 8.89585 8.16602 8.89585ZM9.91602 5.97919H4.08268C3.84352 5.97919 3.64518 5.78085 3.64518 5.54169C3.64518 5.30252 3.84352 5.10419 4.08268 5.10419H9.91602C10.1552 5.10419 10.3535 5.30252 10.3535 5.54169C10.3535 5.78085 10.1552 5.97919 9.91602 5.97919Z" fill="url(#paint0_linear_1151_1047)"/>
<defs>
<linearGradient id="paint0_linear_1151_1047" x1="6.99935" y1="1.16669" x2="7.09657" y2="12.9306" gradientUnits="userSpaceOnUse">
<stop stop-color="#20AEFE"/>
<stop offset="1" stop-color="#135FFF"/>
</linearGradient>
</defs>
</svg>
