<svg width="12" height="11" viewBox="0 0 12 11" fill="none" xmlns="http://www.w3.org/2000/svg">
<path d="M4.91599 0.451756C5.1727 -0.1506 6.02652 -0.150601 6.28323 0.451755L7.30545 2.85026C7.41288 3.10233 7.6503 3.27483 7.92323 3.2991L10.5202 3.53011C11.1724 3.58812 11.4363 4.40015 10.9427 4.83044L8.9775 6.5438C8.77096 6.72386 8.68027 7.00297 8.74152 7.27005L9.32434 9.81132C9.47071 10.4495 8.77996 10.9514 8.21821 10.615L5.98142 9.27538C5.74635 9.13459 5.45287 9.13459 5.2178 9.27538L2.98101 10.615C2.41926 10.9514 1.72851 10.4495 1.87488 9.81132L2.4577 7.27005C2.51895 7.00297 2.42826 6.72386 2.22172 6.5438L0.256494 4.83044C-0.23705 4.40015 0.0267909 3.58812 0.678995 3.53011L3.27599 3.2991C3.54892 3.27483 3.78634 3.10233 3.89377 2.85026L4.91599 0.451756Z" fill="url(#paint0_linear_1151_998)"/>
<defs>
<linearGradient id="paint0_linear_1151_998" x1="5.59961" y1="-1.15228" x2="5.71628" y2="12.9644" gradientUnits="userSpaceOnUse">
<stop stop-color="#20AEFE"/>
<stop offset="1" stop-color="#135FFF"/>
</linearGradient>
</defs>
</svg>
