<svg width="21" height="22" viewBox="0 0 21 22" fill="none" xmlns="http://www.w3.org/2000/svg">
<path d="M10.2759 13.8267C12.0258 13.8267 13.4444 12.4491 13.4444 10.7498C13.4444 9.05044 12.0258 7.67285 10.2759 7.67285C8.52601 7.67285 7.10742 9.05044 7.10742 10.7498C7.10742 12.4491 8.52601 13.8267 10.2759 13.8267Z" stroke="url(#paint0_linear_1_55227)" stroke-width="1.5" stroke-miterlimit="10" stroke-linecap="round" stroke-linejoin="round"/>
<path d="M19.5901 6.41615L18.798 5.08385C18.3607 4.34769 17.392 4.09615 16.6339 4.52077L16.2172 4.75462C14.633 5.64231 12.6527 4.53231 12.6527 2.75615V2.28846C12.6527 1.43846 11.9437 0.75 11.0684 0.75H9.48418C8.60888 0.75 7.89993 1.43846 7.89993 2.28846V2.75615C7.89993 4.53231 5.91962 5.64308 4.33537 4.75462L3.91871 4.52077C3.16064 4.09615 2.19187 4.34769 1.75462 5.08385L0.962496 6.41615C0.525242 7.15231 0.784267 8.09308 1.54233 8.51769L1.95899 8.75154C3.54324 9.64 3.54324 11.86 1.95899 12.7485L1.54233 12.9823C0.784267 13.4069 0.525242 14.3477 0.962496 15.0838L1.75462 16.4162C2.19187 17.1523 3.16064 17.4038 3.91871 16.9792L4.33537 16.7454C5.91962 15.8569 7.89993 16.9677 7.89993 18.7438V19.2115C7.89993 20.0615 8.60888 20.75 9.48418 20.75H11.0684C11.9437 20.75 12.6527 20.0615 12.6527 19.2115V18.7438C12.6527 16.9677 14.633 15.8569 16.2172 16.7454L16.6339 16.9792C17.392 17.4038 18.3607 17.1523 18.798 16.4162L19.5901 15.0838C20.0274 14.3477 19.7683 13.4069 19.0103 12.9823L18.5936 12.7485C17.0094 11.86 17.0094 9.64 18.5936 8.75154L19.0103 8.51769C19.7683 8.09308 20.0282 7.15231 19.5901 6.41615Z" stroke="url(#paint1_linear_1_55227)" stroke-width="1.5" stroke-miterlimit="10" stroke-linecap="round" stroke-linejoin="round"/>
<defs>
<linearGradient id="paint0_linear_1_55227" x1="10.2759" y1="7.67285" x2="10.1265" y2="15.1331" gradientUnits="userSpaceOnUse">
<stop stop-color="#BEBEBE"/>
<stop offset="1" stop-color="white"/>
</linearGradient>
<linearGradient id="paint1_linear_1_55227" x1="10.2765" y1="0.75" x2="9.75152" y2="24.9942" gradientUnits="userSpaceOnUse">
<stop stop-color="#BEBEBE"/>
<stop offset="1" stop-color="white"/>
</linearGradient>
</defs>
</svg>
