<svg width="50" height="50" viewBox="0 0 50 50" fill="none" xmlns="http://www.w3.org/2000/svg">
<path d="M45.3332 33.1667L31.9998 9.16667C30.2082 5.93751 27.729 4.16667 24.9998 4.16667C22.2707 4.16667 19.7915 5.93751 17.9998 9.16667L4.6665 33.1667C2.979 36.2292 2.7915 39.1667 4.14566 41.4792C5.49983 43.7917 8.1665 45.0625 11.6665 45.0625H38.3332C41.8332 45.0625 44.4998 43.7917 45.854 41.4792C47.2082 39.1667 47.0207 36.2083 45.3332 33.1667ZM23.4373 18.75C23.4373 17.8958 24.1457 17.1875 24.9998 17.1875C25.854 17.1875 26.5623 17.8958 26.5623 18.75V29.1667C26.5623 30.0208 25.854 30.7292 24.9998 30.7292C24.1457 30.7292 23.4373 30.0208 23.4373 29.1667V18.75ZM26.479 36.8958C26.3748 36.9792 26.2707 37.0625 26.1665 37.1458C26.0415 37.2292 25.9165 37.2917 25.7915 37.3333C25.6665 37.3958 25.5415 37.4375 25.3957 37.4583C25.2707 37.4792 25.1248 37.5 24.9998 37.5C24.8748 37.5 24.729 37.4792 24.5832 37.4583C24.4582 37.4375 24.3332 37.3958 24.2082 37.3333C24.0832 37.2917 23.9582 37.2292 23.8332 37.1458C23.729 37.0625 23.6248 36.9792 23.5207 36.8958C23.1457 36.5 22.9165 35.9583 22.9165 35.4167C22.9165 34.875 23.1457 34.3333 23.5207 33.9375C23.6248 33.8542 23.729 33.7708 23.8332 33.6875C23.9582 33.6042 24.0832 33.5417 24.2082 33.5C24.3332 33.4375 24.4582 33.3958 24.5832 33.375C24.854 33.3125 25.1457 33.3125 25.3957 33.375C25.5415 33.3958 25.6665 33.4375 25.7915 33.5C25.9165 33.5417 26.0415 33.6042 26.1665 33.6875C26.2707 33.7708 26.3748 33.8542 26.479 33.9375C26.854 34.3333 27.0832 34.875 27.0832 35.4167C27.0832 35.9583 26.854 36.5 26.479 36.8958Z" fill="#FE6D73"/>
</svg>
