<svg width="14" height="14" viewBox="0 0 14 14" fill="none" xmlns="http://www.w3.org/2000/svg">
<path d="M12.6934 9.28666L8.96011 2.56666C8.45844 1.6625 7.76428 1.16666 7.00011 1.16666C6.23594 1.16666 5.54178 1.6625 5.04011 2.56666L1.30678 9.28666C0.834276 10.1442 0.781776 10.9667 1.16094 11.6142C1.54011 12.2617 2.28678 12.6175 3.26678 12.6175H10.7334C11.7134 12.6175 12.4601 12.2617 12.8393 11.6142C13.2184 10.9667 13.1659 10.1383 12.6934 9.28666ZM6.56261 5.25C6.56261 5.01083 6.76094 4.8125 7.00011 4.8125C7.23927 4.8125 7.43761 5.01083 7.43761 5.25V8.16666C7.43761 8.40583 7.23927 8.60416 7.00011 8.60416C6.76094 8.60416 6.56261 8.40583 6.56261 8.16666V5.25ZM7.41428 10.3308C7.38511 10.3542 7.35594 10.3775 7.32678 10.4008C7.29178 10.4242 7.25678 10.4417 7.22178 10.4533C7.18678 10.4708 7.15177 10.4825 7.11094 10.4883C7.07594 10.4942 7.03511 10.5 7.00011 10.5C6.96511 10.5 6.92428 10.4942 6.88344 10.4883C6.84844 10.4825 6.81344 10.4708 6.77844 10.4533C6.74344 10.4417 6.70844 10.4242 6.67344 10.4008C6.64427 10.3775 6.61511 10.3542 6.58594 10.3308C6.48094 10.22 6.41678 10.0683 6.41678 9.91666C6.41678 9.765 6.48094 9.61333 6.58594 9.5025C6.61511 9.47916 6.64427 9.45583 6.67344 9.4325C6.70844 9.40916 6.74344 9.39166 6.77844 9.38C6.81344 9.3625 6.84844 9.35083 6.88344 9.345C6.95928 9.3275 7.04094 9.3275 7.11094 9.345C7.15177 9.35083 7.18678 9.3625 7.22178 9.38C7.25678 9.39166 7.29178 9.40916 7.32678 9.4325C7.35594 9.45583 7.38511 9.47916 7.41428 9.5025C7.51928 9.61333 7.58344 9.765 7.58344 9.91666C7.58344 10.0683 7.51928 10.22 7.41428 10.3308Z" fill="url(#paint0_linear_1293_2500)"/>
<defs>
<linearGradient id="paint0_linear_1293_2500" x1="7.00011" y1="1.16666" x2="6.73089" y2="15.0488" gradientUnits="userSpaceOnUse">
<stop stop-color="#BEBEBE"/>
<stop offset="1" stop-color="white"/>
</linearGradient>
</defs>
</svg>
