<svg width="23" height="24" viewBox="0 0 23 24" fill="none" xmlns="http://www.w3.org/2000/svg">
<path d="M10.958 2.5C15.7426 2.50009 19.6406 6.29505 19.6406 11C19.6406 13.6195 18.4309 15.9552 16.5342 17.5127C16.6219 17.5323 16.7055 17.5752 16.7744 17.6426L19.8428 20.6426C20.0402 20.8356 20.0436 21.1522 19.8506 21.3496C19.6575 21.5469 19.3409 21.5504 19.1436 21.3574L16.0752 18.3574C15.9665 18.2511 15.9184 18.1075 15.9277 17.9668C14.5182 18.9319 12.805 19.5 10.958 19.5C6.17342 19.4999 2.27539 15.7049 2.27539 11C2.27539 6.29507 6.17342 2.50013 10.958 2.5ZM10.958 3.5C6.70428 3.50013 3.27539 6.86853 3.27539 11C3.27539 15.1315 6.70428 18.4999 10.958 18.5C15.2118 18.4999 18.6406 15.1315 18.6406 11C18.6406 6.86851 15.2118 3.50009 10.958 3.5Z" fill="white" fill-opacity="0.5"/>
</svg>
