<svg width="14" height="14" viewBox="0 0 14 14" fill="none" xmlns="http://www.w3.org/2000/svg">
<path d="M9.41531 1.72645L4.14781 3.47645C0.606979 4.66061 0.606979 6.59145 4.14781 7.76978L5.71115 8.28895L6.23031 9.85228C7.40865 13.3931 9.34531 13.3931 10.5236 9.85228L12.2795 4.59061C13.0611 2.22811 11.7778 0.938948 9.41531 1.72645ZM9.60198 4.86478L7.38531 7.09311C7.29781 7.18061 7.18698 7.22145 7.07615 7.22145C6.96531 7.22145 6.85448 7.18061 6.76698 7.09311C6.59781 6.92395 6.59781 6.64395 6.76698 6.47478L8.98365 4.24645C9.15281 4.07728 9.43281 4.07728 9.60198 4.24645C9.77114 4.41561 9.77114 4.69561 9.60198 4.86478Z" fill="url(#paint0_linear_1_55842)"/>
<defs>
<linearGradient id="paint0_linear_1_55842" x1="7.00038" y1="1.49512" x2="6.72508" y2="14.8455" gradientUnits="userSpaceOnUse">
<stop stop-color="#BEBEBE"/>
<stop offset="1" stop-color="white"/>
</linearGradient>
</defs>
</svg>
