<svg width="12" height="14" viewBox="0 0 12 14" fill="none" xmlns="http://www.w3.org/2000/svg">
<path d="M12 12.1719C11.9683 12.6678 11.7568 13.1333 11.4092 13.4727C11.0617 13.8119 10.6036 14.0003 10.1279 14H1.87402C1.39786 14.0011 0.938952 13.813 0.59082 13.4736C0.242651 13.1342 0.0317492 12.6683 0 12.1719V3.67383C0.000174981 3.42482 0.187091 3.22559 0.415039 3.22559H2.4082C2.55895 2.32843 2.98999 1.5154 3.62988 0.926758C4.28051 0.328354 5.10403 5.39893e-06 5.95508 0C6.80613 0 7.62965 0.328362 8.28027 0.926758C8.92016 1.5154 9.3512 2.32843 9.50195 3.22559H11.584C11.8119 3.22559 11.9998 3.42482 12 3.67383V12.1719ZM3.14648 4.0791C2.96431 4.0791 2.78897 4.15681 2.66016 4.2959C2.53142 4.43496 2.45899 4.62369 2.45898 4.82031C2.45898 5.01693 2.53144 5.20566 2.66016 5.34473C2.78897 5.48381 2.96431 5.56152 3.14648 5.56152C3.32853 5.56143 3.5031 5.48372 3.63184 5.34473C3.76064 5.20564 3.83301 5.017 3.83301 4.82031C3.833 4.62363 3.76064 4.43498 3.63184 4.2959C3.5031 4.15691 3.32853 4.0792 3.14648 4.0791ZM8.85547 4.0791C8.6734 4.07915 8.49888 4.15692 8.37012 4.2959C8.24131 4.43498 8.16895 4.62363 8.16895 4.82031C8.16895 5.01701 8.2413 5.20564 8.37012 5.34473C8.49888 5.48372 8.67339 5.56147 8.85547 5.56152C9.03764 5.56152 9.21298 5.48381 9.3418 5.34473C9.47047 5.20567 9.54297 5.01689 9.54297 4.82031C9.54296 4.62373 9.47048 4.43496 9.3418 4.2959C9.21298 4.15681 9.03764 4.0791 8.85547 4.0791ZM5.95508 1.34863C5.43319 1.34864 4.92581 1.5369 4.5127 1.88477C4.11106 2.22301 3.82181 2.6936 3.68457 3.22559H8.22559C8.08835 2.6936 7.7991 2.22301 7.39746 1.88477C6.98434 1.5369 6.47697 1.34863 5.95508 1.34863Z" fill="url(#paint0_linear_1094_1427)"/>
<defs>
<linearGradient id="paint0_linear_1094_1427" x1="6" y1="1.04337e-08" x2="5.59162" y2="16.9691" gradientUnits="userSpaceOnUse">
<stop stop-color="#BEBEBE"/>
<stop offset="1" stop-color="white"/>
</linearGradient>
</defs>
</svg>
