<svg width="26" height="26" viewBox="0 0 26 26" fill="none" xmlns="http://www.w3.org/2000/svg">
<path d="M18.9748 17.1836C19.7624 16.7122 20.7969 17.2265 20.7969 18.0836V19.4656C20.7969 20.8262 19.6331 22.2832 18.2342 22.7117L14.4842 23.8473C13.8259 24.0509 12.7561 24.0509 12.1096 23.8473L8.35957 22.7117C6.94891 22.2832 5.79688 20.8262 5.79688 19.4656V18.0728C5.79688 17.2265 6.83136 16.7122 7.60722 17.1729L10.0289 18.6085C10.9575 19.1763 12.1331 19.4549 13.3086 19.4549C14.4842 19.4549 15.6597 19.1763 16.5884 18.6085L18.9748 17.1836Z" fill="url(#paint0_linear_1_55039)"/>
<path d="M22.2147 7.00877L15.5291 2.59768C14.3237 1.80077 12.337 1.80077 11.1316 2.59768L4.41247 7.00877C2.25834 8.41179 2.25834 11.5882 4.41247 13.0025L6.19827 14.1698L11.1316 17.4023C12.337 18.1992 14.3237 18.1992 15.5291 17.4023L20.4289 14.1698L21.958 13.1596V16.5942C21.958 17.0544 22.3375 17.436 22.7951 17.436C23.2527 17.436 23.6322 17.0544 23.6322 16.5942V11.0719C24.0786 9.62399 23.621 7.94037 22.2147 7.00877Z" fill="url(#paint1_linear_1_55039)"/>
<defs>
<linearGradient id="paint0_linear_1_55039" x1="13.2969" y1="17" x2="13.2152" y2="25.4887" gradientUnits="userSpaceOnUse">
<stop stop-color="#BEBEBE"/>
<stop offset="1" stop-color="white"/>
</linearGradient>
<linearGradient id="paint1_linear_1_55039" x1="13.2969" y1="2" x2="12.992" y2="21.3997" gradientUnits="userSpaceOnUse">
<stop stop-color="#BEBEBE"/>
<stop offset="1" stop-color="white"/>
</linearGradient>
</defs>
</svg>
