<svg width="14" height="14" viewBox="0 0 14 14" fill="none" xmlns="http://www.w3.org/2000/svg">
<path d="M12.291 3.05067C11.3518 2.95734 10.4126 2.88734 9.46763 2.83484V2.829L9.3393 2.07067C9.2518 1.534 9.12347 0.729004 7.75847 0.729004H6.23013C4.87097 0.729004 4.74263 1.499 4.6493 2.06484L4.5268 2.8115C3.9843 2.8465 3.4418 2.8815 2.8993 2.934L1.7093 3.05067C1.4643 3.074 1.2893 3.28984 1.31263 3.529C1.33597 3.76817 1.54597 3.94317 1.79097 3.91984L2.98097 3.80317C6.03763 3.49984 9.11763 3.6165 12.2093 3.92567C12.2268 3.92567 12.2385 3.92567 12.256 3.92567C12.4776 3.92567 12.6701 3.7565 12.6935 3.529C12.711 3.28984 12.536 3.074 12.291 3.05067Z" fill="url(#paint0_linear_1_55834)"/>
<path d="M11.2165 4.7485C11.0765 4.60266 10.884 4.521 10.6857 4.521H3.31237C3.11404 4.521 2.91571 4.60266 2.78154 4.7485C2.64737 4.89433 2.57154 5.09266 2.58321 5.29683L2.94487 11.2818C3.00904 12.1685 3.09071 13.2768 5.12654 13.2768H8.87154C10.9074 13.2768 10.989 12.1743 11.0532 11.2818L11.4149 5.30266C11.4265 5.09266 11.3507 4.89433 11.2165 4.7485ZM7.96737 10.3543H6.02487C5.78571 10.3543 5.58737 10.156 5.58737 9.91683C5.58737 9.67766 5.78571 9.47933 6.02487 9.47933H7.96737C8.20654 9.47933 8.40487 9.67766 8.40487 9.91683C8.40487 10.156 8.20654 10.3543 7.96737 10.3543ZM8.45737 8.021H5.54071C5.30154 8.021 5.10321 7.82266 5.10321 7.5835C5.10321 7.34433 5.30154 7.146 5.54071 7.146H8.45737C8.69654 7.146 8.89487 7.34433 8.89487 7.5835C8.89487 7.82266 8.69654 8.021 8.45737 8.021Z" fill="url(#paint1_linear_1_55834)"/>
<defs>
<linearGradient id="paint0_linear_1_55834" x1="7.00261" y1="0.729004" x2="6.98015" y2="4.60572" gradientUnits="userSpaceOnUse">
<stop stop-color="#BEBEBE"/>
<stop offset="1" stop-color="white"/>
</linearGradient>
<linearGradient id="paint1_linear_1_55834" x1="6.99904" y1="4.521" x2="6.78202" y2="15.1354" gradientUnits="userSpaceOnUse">
<stop stop-color="#BEBEBE"/>
<stop offset="1" stop-color="white"/>
</linearGradient>
</defs>
</svg>
