<svg width="30" height="30" viewBox="0 0 30 30" fill="none" xmlns="http://www.w3.org/2000/svg">
<rect width="30" height="30" rx="6" fill="#2189FF"/>
<path d="M14.2941 19C14.2941 19.3898 14.6102 19.7059 15 19.7059C15.3898 19.7059 15.7059 19.3898 15.7059 19L15 19L14.2941 19ZM15.4991 6.50087C15.2235 6.2252 14.7765 6.2252 14.5009 6.50087L10.0087 10.9931C9.73299 11.2687 9.73299 11.7157 10.0087 11.9913C10.2843 12.267 10.7313 12.267 11.0069 11.9913L15 7.99827L18.9931 11.9913C19.2687 12.267 19.7157 12.267 19.9913 11.9913C20.267 11.7157 20.267 11.2687 19.9913 10.9931L15.4991 6.50087ZM15 19L15.7059 19L15.7059 7L15 7L14.2941 7L14.2941 19L15 19Z" fill="white"/>
<line x1="9.70588" y1="22.2941" x2="20.2941" y2="22.2941" stroke="white" stroke-width="1.41176" stroke-linecap="round"/>
</svg>
