<svg width="50" height="50" viewBox="0 0 50 50" fill="none" xmlns="http://www.w3.org/2000/svg">
<circle cx="25" cy="25" r="11" fill="white"/>
<path d="M44.9173 22.375L42.084 19.0833C41.5423 18.4583 41.1048 17.2916 41.1048 16.4583V12.9166C41.1048 10.7083 39.2923 8.89581 37.084 8.89581H33.5423C32.7298 8.89581 31.5423 8.45831 30.9173 7.91665L27.6257 5.08331C26.1882 3.85415 23.834 3.85415 22.3757 5.08331L19.1048 7.93748C18.4798 8.45831 17.2923 8.89581 16.4798 8.89581H12.8757C10.6673 8.89581 8.85482 10.7083 8.85482 12.9166V16.4791C8.85482 17.2916 8.41732 18.4583 7.89648 19.0833L5.08398 22.3958C3.87565 23.8333 3.87565 26.1666 5.08398 27.6041L7.89648 30.9166C8.41732 31.5416 8.85482 32.7083 8.85482 33.5208V37.0833C8.85482 39.2916 10.6673 41.1041 12.8757 41.1041H16.4798C17.2923 41.1041 18.4798 41.5416 19.1048 42.0833L22.3965 44.9166C23.834 46.1458 26.1882 46.1458 27.6465 44.9166L30.9382 42.0833C31.5632 41.5416 32.7298 41.1041 33.5632 41.1041H37.1048C39.3132 41.1041 41.1257 39.2916 41.1257 37.0833V33.5416C41.1257 32.7291 41.5632 31.5416 42.1048 30.9166L44.9382 27.625C46.1465 26.1875 46.1465 23.8125 44.9173 22.375ZM33.6673 21.0625L23.6048 31.125C23.3132 31.4166 22.9173 31.5833 22.5007 31.5833C22.084 31.5833 21.6882 31.4166 21.3965 31.125L16.3548 26.0833C15.7507 25.4791 15.7507 24.4791 16.3548 23.875C16.959 23.2708 17.959 23.2708 18.5632 23.875L22.5007 27.8125L31.459 18.8541C32.0632 18.25 33.0632 18.25 33.6673 18.8541C34.2715 19.4583 34.2715 20.4583 33.6673 21.0625Z" fill="#68AEFF"/>
</svg>
