<svg width="24" height="25" viewBox="0 0 24 25" fill="none" xmlns="http://www.w3.org/2000/svg">
<path d="M13.2176 21.2725C13.029 21.5985 12.6764 21.818 12.2726 21.818H11.7272C11.3234 21.818 10.9708 21.5985 10.7822 21.2725H13.2176Z" fill="url(#paint0_linear_16889_4026)"/>
<path d="M14.4545 19.6367C14.6047 19.6367 14.7273 19.7592 14.7273 19.9094C14.7273 20.0596 14.6047 20.1821 14.4545 20.1821H9.54543C9.39522 20.1821 9.27271 20.0596 9.27271 19.9094C9.27271 19.7592 9.39522 19.6367 9.54543 19.6367H14.4545Z" fill="url(#paint1_linear_16889_4026)"/>
<path d="M14.4545 18C14.6047 18 14.7273 18.1225 14.7273 18.2727C14.7273 18.4229 14.6047 18.5455 14.4545 18.5455H9.54543C9.39522 18.5455 9.27271 18.4229 9.27271 18.2727C9.27271 18.1225 9.39522 18 9.54543 18H14.4545Z" fill="url(#paint2_linear_16889_4026)"/>
<path d="M9.25583 6.31543C9.34212 6.42622 9.44546 6.5253 9.56265 6.60839L9.77784 6.76286C10.2477 7.09846 10.8964 7.05476 11.3162 6.65527C11.3812 6.59454 11.427 6.52103 11.4547 6.4422V7.4415C11.4483 7.45748 11.4419 7.47559 11.4323 7.49476C11.412 7.53951 11.3875 7.57892 11.362 7.61089C11.314 7.67054 11.2906 7.66841 11.2874 7.66735C10.9859 7.66735 10.7419 7.91238 10.7419 8.2128C10.7419 8.5143 10.9859 8.75826 11.2874 8.75826C11.3449 8.75826 11.4014 8.754 11.4547 8.74654V12.4005C11.4547 12.4772 11.4397 12.5539 11.411 12.6253C11.33 12.8256 11.1436 12.979 10.9103 13.0195L10.5427 13.0834C10.4106 13.1058 10.2775 13.0759 10.172 13.0035C10.0591 12.9257 9.99196 12.8085 9.97918 12.6849L9.91952 12.1246C10.1049 11.9477 10.3584 11.8455 10.6258 11.8455H10.7419C11.0434 11.8455 11.2874 11.6015 11.2874 11.3C11.2874 10.9985 11.0424 10.7545 10.7419 10.7545H10.6258C10.058 10.7545 9.51255 10.9804 9.11623 11.3842C8.9447 11.381 8.7913 11.2947 8.70501 11.1626C8.60699 11.0134 8.60593 10.8259 8.70288 10.6757L8.88185 10.3998C8.89996 10.37 8.91701 10.3391 8.92979 10.306L9.22169 9.5795C9.33462 9.29932 9.19932 8.98184 8.91913 8.86997C8.64002 8.75704 8.32254 8.89234 8.2096 9.17253L8.12331 9.38667C8.06045 9.3366 8.00825 9.27481 7.97097 9.20556C7.93048 9.12673 7.90918 9.04043 7.90918 8.95414V8.87956C7.90918 8.62601 8.0253 8.38099 8.2341 8.21266C8.61549 7.90478 8.7572 7.3881 8.58568 6.92894L8.52176 6.75848C8.49619 6.69137 8.49832 6.61786 8.52708 6.55181C8.56863 6.45699 8.66451 6.38242 8.78596 6.36857L9.25583 6.31543Z" fill="url(#paint3_linear_16889_4026)"/>
<path d="M15.2141 6.36867C15.3356 6.38252 15.4314 6.45709 15.473 6.55191C15.5018 6.61796 15.5039 6.69147 15.4783 6.75858L15.3228 7.17406L15.1843 7.27313C14.9382 7.44998 14.7624 7.70887 14.6921 8.00502C14.675 8.07534 14.6047 8.14139 14.5035 8.14139H13.4574C13.1559 8.14245 12.9119 8.38642 12.9119 8.68684C12.9119 8.98834 13.1559 9.2323 13.4574 9.2323H14.5035C15.0905 9.2323 15.6157 8.83812 15.7542 8.25752C15.7574 8.24367 15.7627 8.22982 15.7702 8.21597C15.9758 8.38429 16.0909 8.62719 16.0909 8.87968V8.95425C16.0909 9.04054 16.0696 9.12684 16.0291 9.20567L15.9226 9.40702C15.3366 9.62861 15.0767 10.3349 15.4314 10.8825L15.4549 10.9198L15.2951 11.1627C15.2088 11.2948 15.0554 11.3811 14.8838 11.3843C14.4875 10.9805 13.9421 10.7547 13.3742 10.7547H13.2581C12.9577 10.7547 12.7127 10.9987 12.7127 11.3001C12.7127 11.6016 12.9566 11.8456 13.2581 11.8456H13.3742C13.6416 11.8456 13.8952 11.9479 14.0806 12.1247L14.0209 12.6851C14.0081 12.8087 13.941 12.9258 13.8281 13.0036C13.7226 13.0761 13.5894 13.1059 13.4573 13.0835L13.0898 13.0196C12.8565 12.9791 12.67 12.8257 12.5891 12.6254C12.5603 12.5541 12.5454 12.4774 12.5454 12.4006V10.4628C12.6945 10.4266 12.8852 10.3967 13.0951 10.3967C13.3955 10.3967 13.6395 10.1528 13.6406 9.85128C13.6406 9.54978 13.3955 9.30582 13.0951 9.30582C12.8991 9.30582 12.7137 9.32393 12.5454 9.35057V6.4422C12.5731 6.52104 12.6189 6.59454 12.6839 6.65527C13.1036 7.05476 13.7524 7.09845 14.2222 6.76287L14.4374 6.60839C14.5546 6.5253 14.6579 6.42622 14.7442 6.31543L15.2141 6.36867Z" fill="url(#paint4_linear_16889_4026)"/>
<path d="M10.4496 4.95696C10.6893 4.86427 10.9621 4.90902 11.1538 5.06882L11.1932 5.10184C11.3616 5.2414 11.4542 5.44169 11.4542 5.64836V6.07769C11.4297 6.00738 11.3903 5.94132 11.3349 5.88379C11.1272 5.6654 10.782 5.65688 10.5636 5.86462C10.5253 5.90191 10.4582 5.90723 10.4113 5.87421L10.1961 5.7208C10.0885 5.64409 10.0288 5.52371 10.0288 5.40119C10.0288 5.23926 10.1311 5.08052 10.3005 5.01552L10.4496 4.95696Z" fill="url(#paint5_linear_16889_4026)"/>
<path d="M12.8459 5.06882C13.0376 4.90902 13.3103 4.86427 13.55 4.95696L13.6992 5.01555C13.8686 5.08053 13.9709 5.23927 13.9709 5.40121C13.9709 5.52373 13.9112 5.64411 13.8036 5.72082L13.5884 5.87423C13.5415 5.90725 13.4744 5.90193 13.4361 5.86464C13.2177 5.6569 12.8725 5.66542 12.6648 5.88382C12.6094 5.94135 12.5699 6.0074 12.5454 6.07771V5.64838C12.5454 5.44171 12.6381 5.24142 12.8064 5.10187L12.8459 5.06882Z" fill="url(#paint6_linear_16889_4026)"/>
<path fill-rule="evenodd" clip-rule="evenodd" d="M11.9998 2.18164C15.7659 2.18164 18.818 5.23374 18.818 8.99983C18.818 11.3852 17.5939 13.4849 15.737 14.7037C14.9955 15.1906 14.3595 15.964 14.2135 16.9089H9.78607C9.64012 15.964 9.00411 15.1905 8.26264 14.7037C6.40575 13.4849 5.18164 11.3851 5.18164 8.99983C5.18164 5.23374 8.23368 2.18164 11.9998 2.18164ZM13.9451 3.94052C13.3389 3.70401 12.6475 3.81374 12.1479 4.23029L12.1085 4.26331C12.0712 4.29421 12.035 4.32724 11.9998 4.36026C11.9646 4.32724 11.9284 4.29421 11.8911 4.26331L11.8517 4.23029C11.3521 3.81375 10.6607 3.70401 10.0545 3.94052L9.90426 3.99805C9.3716 4.20579 9.00086 4.69266 8.9444 5.25303L8.66423 5.28392C8.16672 5.33932 7.72992 5.65148 7.5275 6.11277C7.38474 6.43982 7.37409 6.80844 7.4998 7.14188L7.56372 7.31233C7.57012 7.33044 7.56479 7.35068 7.54988 7.3624C7.08965 7.73315 6.81798 8.28924 6.81798 8.87945V8.95402C6.81798 9.21823 6.88297 9.47818 7.00548 9.71253C7.15144 9.98951 7.37197 10.2176 7.63936 10.3742C7.46677 10.8291 7.51791 11.3436 7.79277 11.7623C8.03779 12.1341 8.42664 12.3802 8.85703 12.4526L8.89325 12.7978C8.94013 13.2452 9.18302 13.6458 9.55058 13.9004C9.89361 14.1369 10.3176 14.2296 10.7278 14.1582L11.0954 14.0943C11.4384 14.0357 11.7527 13.878 11.9998 13.6469C12.247 13.878 12.5613 14.0357 12.9043 14.0943L13.2719 14.1582C13.682 14.2296 14.106 14.1369 14.4491 13.9004C14.8166 13.6458 15.0595 13.2452 15.1064 12.7978L15.1426 12.4526C15.573 12.3802 15.9618 12.1341 16.2069 11.7623L16.3816 11.4959C16.6021 11.1604 16.6117 10.731 16.4082 10.3869C16.6053 10.2942 16.7694 10.1398 16.8727 9.94371L16.9941 9.71253C17.1167 9.47815 17.1816 9.21821 17.1816 8.95402V8.87944C17.1816 8.28923 16.91 7.73314 16.4498 7.3624L16.4242 7.34216L16.4998 7.14187C16.6255 6.80841 16.6149 6.43982 16.4721 6.11276C16.2697 5.65147 15.8329 5.33933 15.3354 5.28391L15.0552 5.25302C14.9988 4.69265 14.628 4.2058 14.0954 3.99804L13.9451 3.94052Z" fill="url(#paint7_linear_16889_4026)"/>
<defs>
<linearGradient id="paint0_linear_16889_4026" x1="11.9999" y1="21.2725" x2="11.9999" y2="21.818" gradientUnits="userSpaceOnUse">
<stop stop-color="#C0C0C0"/>
<stop offset="0.754808" stop-color="white"/>
</linearGradient>
<linearGradient id="paint1_linear_16889_4026" x1="12" y1="19.6367" x2="12" y2="20.1821" gradientUnits="userSpaceOnUse">
<stop stop-color="#C0C0C0"/>
<stop offset="0.754808" stop-color="white"/>
</linearGradient>
<linearGradient id="paint2_linear_16889_4026" x1="12" y1="18" x2="12" y2="18.5455" gradientUnits="userSpaceOnUse">
<stop stop-color="#C0C0C0"/>
<stop offset="0.754808" stop-color="white"/>
</linearGradient>
<linearGradient id="paint3_linear_16889_4026" x1="9.68195" y1="6.31543" x2="9.68195" y2="13.0907" gradientUnits="userSpaceOnUse">
<stop stop-color="#C0C0C0"/>
<stop offset="0.754808" stop-color="white"/>
</linearGradient>
<linearGradient id="paint4_linear_16889_4026" x1="14.3182" y1="6.31543" x2="14.3182" y2="13.0908" gradientUnits="userSpaceOnUse">
<stop stop-color="#C0C0C0"/>
<stop offset="0.754808" stop-color="white"/>
</linearGradient>
<linearGradient id="paint5_linear_16889_4026" x1="10.7415" y1="4.90918" x2="10.7415" y2="6.07769" gradientUnits="userSpaceOnUse">
<stop stop-color="#C0C0C0"/>
<stop offset="0.754808" stop-color="white"/>
</linearGradient>
<linearGradient id="paint6_linear_16889_4026" x1="13.2582" y1="4.90918" x2="13.2582" y2="6.07771" gradientUnits="userSpaceOnUse">
<stop stop-color="#C0C0C0"/>
<stop offset="0.754808" stop-color="white"/>
</linearGradient>
<linearGradient id="paint7_linear_16889_4026" x1="11.9998" y1="2.18164" x2="11.9998" y2="16.9089" gradientUnits="userSpaceOnUse">
<stop stop-color="#C0C0C0"/>
<stop offset="0.754808" stop-color="white"/>
</linearGradient>
</defs>
</svg>
