<svg width="50" height="50" viewBox="0 0 50 50" fill="none" xmlns="http://www.w3.org/2000/svg">
<path d="M25 0.5H49.5V25C49.5 38.531 38.531 49.5 25 49.5C11.469 49.5 0.5 38.531 0.5 25C0.5 11.469 11.469 0.5 25 0.5Z" fill="#68AEFF"/>
<path d="M25 0.5H49.5V25C49.5 38.531 38.531 49.5 25 49.5C11.469 49.5 0.5 38.531 0.5 25C0.5 11.469 11.469 0.5 25 0.5Z" stroke="white"/>
<path d="M25 22.9999C33.2843 22.9999 40 20.7613 40 17.9999C40 15.2385 33.2843 12.9999 25 12.9999C16.7157 12.9999 10 15.2385 10 17.9999C10 20.7613 16.7157 22.9999 25 22.9999Z" fill="white"/>
<path d="M25 22.9999C33.2843 22.9999 40 20.7613 40 17.9999C40 15.2385 33.2843 12.9999 25 12.9999C16.7157 12.9999 10 15.2385 10 17.9999C10 20.7613 16.7157 22.9999 25 22.9999Z" fill="white"/>
<path d="M36.5553 24.3814C33.4243 25.425 29.3206 25.9998 25 25.9998C20.6794 25.9998 16.5757 25.425 13.4447 24.3814C12.0119 23.9038 10.884 23.361 10 22.7852V24.8998C10 26.2353 11.5602 27.491 14.3934 28.4353C17.2265 29.3797 20.9933 29.8998 25 29.8998C29.0067 29.8998 32.7735 29.3798 35.6066 28.4353C38.4397 27.491 40 26.2353 40 24.8998V22.7852C39.116 23.361 37.9881 23.9037 36.5553 24.3814Z" fill="white"/>
<path d="M36.5553 31.2817C33.4244 32.3253 29.3206 32.9001 25 32.9001C20.6794 32.9001 16.5756 32.3253 13.4447 31.2816C12.0118 30.804 10.8839 30.2613 10 29.6855V32.0002C10 34.7615 16.7157 37.0001 25 37.0001C33.2843 37.0001 40 34.7615 40 32.0001V29.6856C39.1161 30.2613 37.9882 30.8041 36.5553 31.2817Z" fill="white"/>
</svg>
