<svg width="18" height="18" viewBox="0 0 18 18" fill="none" xmlns="http://www.w3.org/2000/svg">
<rect width="18" height="18" rx="9" fill="#68AEFF"/>
<path d="M13.1673 7.14567C13.1673 7.42067 12.9423 7.64567 12.6673 7.64567H5.33398C5.05898 7.64567 4.83398 7.42067 4.83398 7.14567V7.1415C4.83398 6.18734 5.60482 5.4165 6.55898 5.4165H11.4382C12.3923 5.4165 13.1673 6.1915 13.1673 7.14567Z" fill="white"/>
<path d="M4.83398 8.771V10.8585C4.83398 11.8127 5.60482 12.5835 6.55898 12.5835H11.4382C12.3923 12.5835 13.1673 11.8085 13.1673 10.8543V8.771C13.1673 8.496 12.9423 8.271 12.6673 8.271H5.33398C5.05898 8.271 4.83398 8.496 4.83398 8.771ZM7.33398 11.1877H6.50065C6.32982 11.1877 6.18815 11.046 6.18815 10.8752C6.18815 10.7043 6.32982 10.5627 6.50065 10.5627H7.33398C7.50482 10.5627 7.64648 10.7043 7.64648 10.8752C7.64648 11.046 7.50482 11.1877 7.33398 11.1877ZM10.0423 11.1877H8.37565C8.20482 11.1877 8.06315 11.046 8.06315 10.8752C8.06315 10.7043 8.20482 10.5627 8.37565 10.5627H10.0423C10.2132 10.5627 10.3548 10.7043 10.3548 10.8752C10.3548 11.046 10.2132 11.1877 10.0423 11.1877Z" fill="white"/>
</svg>
