<svg width="25" height="24" viewBox="0 0 25 24" fill="none" xmlns="http://www.w3.org/2000/svg">
<path d="M10.2222 17.654H7.88889C6.74815 17.654 5.81481 18.697 5.81481 19.9719V20.2616H4.77778C4.35259 20.2616 4 20.6556 4 21.1308C4 21.606 4.35259 22 4.77778 22H17.2222C17.6474 22 18 21.606 18 21.1308C18 20.6556 17.6474 20.2616 17.2222 20.2616H16.1852V19.9719C16.1852 18.697 15.2519 17.654 14.1111 17.654H11.7778V15C11.5185 15.0348 11.2593 15.0464 11 15.0464C10.7407 15.0464 10.4815 15.0348 10.2222 15V17.654Z" fill="url(#paint0_linear_2679_307)"/>
<path d="M18.3333 10.3286C19.0802 10.0607 19.7366 9.62143 20.2572 9.12857C21.3097 8.025 22 6.70714 22 5.16429C22 3.62143 20.7212 2.41071 19.0916 2.41071H18.4578C17.7222 0.985714 16.1831 0 14.3951 0H7.60494C5.81687 0 4.27778 0.985714 3.54218 2.41071H2.90844C1.27881 2.41071 0 3.62143 0 5.16429C0 6.70714 0.690329 8.025 1.7428 9.12857C2.26337 9.62143 2.91975 10.0607 3.66667 10.3286C4.84362 13.0714 7.67284 15 11 15C14.3272 15 17.1564 13.0714 18.3333 10.3286ZM14.214 6.91071L13.5123 7.725C13.3992 7.84286 13.32 8.07857 13.3313 8.23929L13.3992 9.28929C13.4444 9.93214 12.9578 10.2643 12.3241 10.0286L11.2942 9.64286C11.1358 9.58928 10.8642 9.58928 10.7058 9.64286L9.67593 10.0286C9.04218 10.2643 8.55556 9.93214 8.60082 9.28929L8.66872 8.23929C8.68004 8.07857 8.60082 7.84286 8.48765 7.725L7.78601 6.91071C7.34465 6.41786 7.53704 5.87143 8.19342 5.71071L9.26852 5.45357C9.43827 5.41071 9.64198 5.26071 9.73251 5.12143L10.3323 4.24286C10.7058 3.69643 11.2942 3.69643 11.6677 4.24286L12.2675 5.12143C12.358 5.26071 12.5617 5.41071 12.7315 5.45357L13.8066 5.71071C14.463 5.87143 14.6554 6.41786 14.214 6.91071Z" fill="url(#paint1_linear_2679_307)"/>
<defs>
<linearGradient id="paint0_linear_2679_307" x1="11" y1="15" x2="10.9124" y2="23.4885" gradientUnits="userSpaceOnUse">
<stop stop-color="#BEBEBE"/>
<stop offset="1" stop-color="white"/>
</linearGradient>
<linearGradient id="paint1_linear_2679_307" x1="11" y1="1.11789e-08" x2="10.7442" y2="18.1881" gradientUnits="userSpaceOnUse">
<stop stop-color="#BEBEBE"/>
<stop offset="1" stop-color="white"/>
</linearGradient>
</defs>
</svg>
