<svg width="50" height="50" viewBox="0 0 50 50" fill="none" xmlns="http://www.w3.org/2000/svg">
<path d="M25 0.5H49.5V25C49.5 38.531 38.531 49.5 25 49.5C11.469 49.5 0.5 38.531 0.5 25C0.5 11.469 11.469 0.5 25 0.5Z" fill="#68AEFF"/>
<path d="M25 0.5H49.5V25C49.5 38.531 38.531 49.5 25 49.5C11.469 49.5 0.5 38.531 0.5 25C0.5 11.469 11.469 0.5 25 0.5Z" stroke="white"/>
<path d="M28.4129 12.5H21.5879V17.95H28.4129V12.5Z" fill="white"/>
<path d="M30.2871 12.5V17.95H37.3371C36.6996 14.5125 34.1621 12.5125 30.2871 12.5Z" fill="white"/>
<path d="M12.5 19.8252V30.2377C12.5 34.7877 15.2125 37.5002 19.7625 37.5002H30.2375C34.7875 37.5002 37.5 34.7877 37.5 30.2377V19.8252H12.5ZM28.05 30.2252L25.45 31.7252C24.9 32.0377 24.3625 32.2002 23.8625 32.2002C23.4875 32.2002 23.15 32.1127 22.8375 31.9377C22.1125 31.5252 21.7125 30.6752 21.7125 29.5752V26.5752C21.7125 25.4752 22.1125 24.6252 22.8375 24.2127C23.5625 23.7877 24.4875 23.8627 25.45 24.4252L28.05 25.9252C29.0125 26.4752 29.5375 27.2502 29.5375 28.0877C29.5375 28.9252 29 29.6627 28.05 30.2252Z" fill="white"/>
<path d="M19.7121 12.5C15.8371 12.5125 13.2996 14.5125 12.6621 17.95H19.7121V12.5Z" fill="white"/>
</svg>
