<svg width="26" height="26" viewBox="0 0 26 26" fill="none" xmlns="http://www.w3.org/2000/svg">
<path d="M18.4165 2.1665H7.58317C4.59317 2.1665 2.1665 4.58234 2.1665 7.5615V14.0398V15.1232C2.1665 18.1023 4.59317 20.5182 7.58317 20.5182H9.20817C9.50067 20.5182 9.89067 20.7132 10.0748 20.9515L11.6998 23.1073C12.4148 24.0607 13.5848 24.0607 14.2998 23.1073L15.9248 20.9515C16.1307 20.6807 16.4557 20.5182 16.7915 20.5182H18.4165C21.4065 20.5182 23.8332 18.1023 23.8332 15.1232V7.5615C23.8332 4.58234 21.4065 2.1665 18.4165 2.1665ZM14.0832 14.8957H7.58317C7.139 14.8957 6.77067 14.5273 6.77067 14.0832C6.77067 13.639 7.139 13.2707 7.58317 13.2707H14.0832C14.5273 13.2707 14.8957 13.639 14.8957 14.0832C14.8957 14.5273 14.5273 14.8957 14.0832 14.8957ZM18.4165 9.479H7.58317C7.139 9.479 6.77067 9.11067 6.77067 8.6665C6.77067 8.22234 7.139 7.854 7.58317 7.854H18.4165C18.8607 7.854 19.229 8.22234 19.229 8.6665C19.229 9.11067 18.8607 9.479 18.4165 9.479Z" fill="url(#paint0_linear_1_3119)"/>
<defs>
<linearGradient id="paint0_linear_1_3119" x1="12.9998" y1="2.1665" x2="12.4586" y2="28.4191" gradientUnits="userSpaceOnUse">
<stop stop-color="#BEBEBE"/>
<stop offset="1" stop-color="white"/>
</linearGradient>
</defs>
</svg>
