<svg width="50" height="50" viewBox="0 0 50 50" fill="none" xmlns="http://www.w3.org/2000/svg">
<circle cx="25" cy="25" r="11" fill="white"/>
<path d="M42.084 19.0833L44.9173 22.375C46.1465 23.8125 46.1465 26.1875 44.9382 27.625L42.1048 30.9166C41.5632 31.5416 41.1257 32.7291 41.1257 33.5416V37.0833C41.1257 39.2916 39.3132 41.1041 37.1048 41.1041H33.5632C32.7298 41.1041 31.5632 41.5416 30.9382 42.0833L27.6465 44.9166C26.1882 46.1458 23.834 46.1458 22.3965 44.9166L19.1048 42.0833C18.4798 41.5416 17.2923 41.1041 16.4798 41.1041H12.8757C10.6673 41.1041 8.85482 39.2916 8.85482 37.0833V33.5208C8.85482 32.7083 8.41732 31.5416 7.89648 30.9166L5.08398 27.6041C3.87565 26.1666 3.87565 23.8333 5.08398 22.3958L7.89648 19.0833C8.41732 18.4583 8.85482 17.2916 8.85482 16.4791V12.9166C8.85482 10.7083 10.6673 8.89581 12.8757 8.89581H16.4798C17.2923 8.89581 18.4798 8.45831 19.1048 7.93748L22.3757 5.08331C23.834 3.85415 26.1882 3.85415 27.6257 5.08331L30.9173 7.91665C31.5423 8.45831 32.7298 8.89581 33.5423 8.89581H37.084C39.2923 8.89581 41.1048 10.7083 41.1048 12.9166V16.4583C41.1048 17.2916 41.5423 18.4583 42.084 19.0833Z" fill="#F20E8E"/>
<path d="M32.4482 31.5312L26.4207 25.5043L32.4482 19.4774C32.5808 19.3325 32.6525 19.1419 32.6481 18.9455C32.6438 18.749 32.5638 18.5619 32.4248 18.4229C32.2859 18.284 32.0987 18.204 31.9022 18.1997C31.7057 18.1953 31.5152 18.2669 31.3702 18.3996L25.3427 24.4234L19.3167 18.398C19.2465 18.3244 19.1623 18.2656 19.0691 18.2249C18.9759 18.1843 18.8755 18.1628 18.7738 18.1615C18.6721 18.1602 18.5712 18.1793 18.477 18.2176C18.3828 18.2559 18.2972 18.3127 18.2252 18.3845C18.1532 18.4564 18.0964 18.5419 18.0579 18.636C18.0195 18.7302 18.0003 18.831 18.0014 18.9327C18.0025 19.0344 18.0239 19.1348 18.0644 19.2281C18.1049 19.3214 18.1636 19.4056 18.2372 19.4759L24.2632 25.5043L18.2356 31.5312C18.103 31.6761 18.0314 31.8667 18.0357 32.0631C18.0401 32.2596 18.1201 32.4468 18.259 32.5857C18.398 32.7246 18.5852 32.8046 18.7816 32.809C18.9781 32.8133 19.1686 32.7417 19.3136 32.6091L25.3411 26.5822L31.3702 32.6091C31.4404 32.6827 31.5245 32.7415 31.6178 32.7821C31.711 32.8228 31.8114 32.8443 31.9131 32.8456C32.0148 32.8468 32.1157 32.8278 32.2099 32.7895C32.3041 32.7512 32.3897 32.6944 32.4617 32.6226C32.5336 32.5507 32.5905 32.4652 32.629 32.3711C32.6674 32.2769 32.6866 32.176 32.6855 32.0744C32.6844 31.9727 32.663 31.8723 32.6225 31.779C32.582 31.6857 32.5232 31.6015 32.4497 31.5312L32.4482 31.5312Z" fill="white"/>
</svg>
