<svg width="8" height="11" viewBox="0 0 8 11" fill="none" xmlns="http://www.w3.org/2000/svg">
<path d="M3.99001 10.5C3.06601 10.5 2.28667 10.3273 1.65201 9.98199C1.01734 9.62732 0.466675 9.18865 7.81287e-06 8.66599L1.73601 7.29399C1.99734 7.74199 2.31934 8.08732 2.70201 8.32999C3.08467 8.56332 3.50934 8.67999 3.97601 8.67999C4.48001 8.67999 4.86267 8.53999 5.12401 8.25999C5.39467 7.97999 5.53001 7.66265 5.53001 7.30799C5.53001 7.09332 5.46934 6.91132 5.34801 6.76199C5.22667 6.61265 5.06801 6.48665 4.87201 6.38399C4.67601 6.27199 4.44734 6.17399 4.18601 6.08999C3.93401 6.00599 3.67267 5.92199 3.40201 5.83799C3.05667 5.72599 2.71134 5.60465 2.36601 5.47399C2.02067 5.34332 1.70801 5.17065 1.42801 4.95599C1.15734 4.73199 0.933341 4.46132 0.756008 4.14398C0.588008 3.81732 0.504008 3.41132 0.504008 2.92599C0.504008 2.51532 0.588008 2.13265 0.756008 1.77798C0.924008 1.42332 1.15734 1.11532 1.45601 0.853985C1.76401 0.583319 2.12334 0.373318 2.53401 0.223985C2.95401 0.0746518 3.40667 -1.4782e-05 3.89201 -1.4782e-05C4.30267 -1.4782e-05 4.67134 0.0373183 4.99801 0.111985C5.33401 0.186651 5.63734 0.289318 5.90801 0.419985C6.18801 0.550651 6.44001 0.709318 6.66401 0.895985C6.89734 1.07332 7.11667 1.26932 7.32201 1.48399L5.75401 2.67399C5.31534 2.02065 4.69934 1.69399 3.90601 1.69399C3.43934 1.69399 3.08467 1.80599 2.84201 2.02998C2.59934 2.25398 2.47801 2.52932 2.47801 2.85599C2.47801 3.06132 2.53401 3.23399 2.64601 3.37399C2.75801 3.51399 2.90734 3.63998 3.09401 3.75198C3.29001 3.85465 3.51401 3.94799 3.76601 4.03199C4.01801 4.11599 4.28401 4.20465 4.56401 4.29798C4.90934 4.40998 5.25467 4.54065 5.60001 4.68998C5.95467 4.82999 6.27201 5.01665 6.55201 5.24999C6.84134 5.47399 7.07467 5.75399 7.25201 6.08999C7.42934 6.41665 7.51801 6.82732 7.51801 7.32199C7.51801 7.72332 7.43867 8.11532 7.28001 8.49799C7.12134 8.88065 6.89268 9.22132 6.59401 9.51999C6.29534 9.80932 5.92667 10.0473 5.48801 10.234C5.04934 10.4113 4.55001 10.5 3.99001 10.5Z" fill="url(#paint0_linear_2378_6223)"/>
<defs>
<linearGradient id="paint0_linear_2378_6223" x1="3.95801" y1="0.359985" x2="3.95801" y2="10.36" gradientUnits="userSpaceOnUse">
<stop stop-color="white"/>
<stop offset="1" stop-color="#999999"/>
</linearGradient>
</defs>
</svg>
