<svg width="14" height="14" viewBox="0 0 14 14" fill="none" xmlns="http://www.w3.org/2000/svg">
<g clip-path="url(#clip0_1293_3231)">
<path d="M6.99805 0.369141C10.6606 0.369141 13.6299 3.33846 13.6299 7.00098C13.6297 10.6634 10.6605 13.6318 6.99805 13.6318C3.33579 13.6316 0.367327 10.6632 0.367188 7.00098C0.367188 3.33859 3.33571 0.369353 6.99805 0.369141ZM7.36035 2.32324L7.34668 8.85449C7.34663 9.6557 6.63908 10.287 5.83789 10.2871C5.45315 10.2871 5.08358 10.1344 4.81152 9.8623C4.53953 9.59026 4.38672 9.22063 4.38672 8.83594C4.38684 8.45142 4.53965 8.08248 4.81152 7.81055C5.08358 7.53849 5.45315 7.38574 5.83789 7.38574C5.89779 7.38577 5.95543 7.39633 6.01367 7.40332V6.00293C5.95543 5.99927 5.89713 5.99416 5.83789 5.99414C5.27583 5.99414 4.72615 6.16044 4.25879 6.47266C3.79148 6.7849 3.42706 7.22884 3.21191 7.74805C2.99678 8.26742 2.94013 8.83927 3.0498 9.39062C3.15948 9.94198 3.43062 10.4482 3.82812 10.8457C4.22562 11.2432 4.73188 11.5144 5.2832 11.624C5.83452 11.7337 6.40646 11.677 6.92578 11.4619C7.44496 11.2468 7.88894 10.8823 8.20117 10.415C8.5134 9.94767 8.67969 9.39801 8.67969 8.83594V4.99023C8.90685 5.33717 9.21721 5.62217 9.58203 5.81934C9.94682 6.01647 10.3549 6.12016 10.7695 6.12012L11.001 6.1084V4.55176C10.4171 4.50907 9.86679 4.26183 9.44629 3.85449C9.02591 3.4472 8.76143 2.90535 8.7002 2.32324H7.36035Z" fill="url(#paint0_linear_1293_3231)"/>
</g>
<defs>
<linearGradient id="paint0_linear_1293_3231" x1="6.99854" y1="0.369141" x2="6.66688" y2="16.447" gradientUnits="userSpaceOnUse">
<stop stop-color="#BEBEBE"/>
<stop offset="1" stop-color="white"/>
</linearGradient>
<clipPath id="clip0_1293_3231">
<rect width="14" height="14" fill="white"/>
</clipPath>
</defs>
</svg>
