<svg width="26" height="26" viewBox="0 0 26 26" fill="none" xmlns="http://www.w3.org/2000/svg">
<path d="M17.539 2.1665H8.46067C4.51734 2.1665 2.1665 4.51734 2.1665 8.46067V17.5282C2.1665 21.4823 4.51734 23.8332 8.46067 23.8332H17.5282C21.4715 23.8332 23.8223 21.4823 23.8223 17.539V8.46067C23.8332 4.51734 21.4823 2.1665 17.539 2.1665ZM15.8815 14.874L14.4948 15.6757L13.1082 16.4773C11.3207 17.5065 9.85817 16.6615 9.85817 14.6032V12.9998V11.3965C9.85817 9.32734 11.3207 8.49317 13.1082 9.52234L14.4948 10.324L15.8815 11.1257C17.669 12.1548 17.669 13.8448 15.8815 14.874Z" fill="url(#paint0_linear_1_1514)"/>
<defs>
<linearGradient id="paint0_linear_1_1514" x1="12.9944" y1="2.1665" x2="12.4524" y2="28.4322" gradientUnits="userSpaceOnUse">
<stop stop-color="#BEBEBE"/>
<stop offset="1" stop-color="white"/>
</linearGradient>
</defs>
</svg>
